<svg width="86" height="40" fill="none" xmlns="http://www.w3.org/2000/svg"><path d="M5.433 18.836L0 .313h3.472L5.433 8.81h.108L7.781.313h2.832l2.24 8.516h.108L14.93.313h3.466l-5.202 18.523-1.603-5.556-2.342-7.864h-.102L6.804 13.28l-1.37 5.556z" fill="#D91717"/><path d="M5.433 18.53L0 37.055h3.472l1.961-8.497h.108l2.24 8.497h2.832l2.24-8.516h.108l1.968 8.516h3.466L13.193 18.53l-1.603 5.556-2.342 7.865h-.101l-2.343-7.865-1.37-5.555z" fill="#2BAE42"/><path d="M21.534.313H25l-5.201 18.523h-3.546L21.534.313z" fill="#202321"/><path d="M21.534 37.313H25l-5.201-18.524h-3.546l5.281 18.523z" fill="#202321"/><path d="M32.68 26.3L29.376.55h4.042l2.124 18.832h-.48L38.163.55h3.255L44.5 19.382h-.463L46.161.55h4.026L46.88 26.301h-4.248L39.48 9.39h.65l-3.2 16.91h-4.25zm19.817 0V.55h3.631l5.43 20.652h-.925L66.063.549h3.631v25.752h-3.682V11.296l.462.086-4.06 14.919h-2.637l-4.06-14.919.463-.086v15.005h-3.683zm33.129-7.004v1.202c0 1.9-.565 3.433-1.695 4.6-1.13 1.168-2.65 1.752-4.557 1.752-1.895 0-3.414-.584-4.556-1.751-1.13-1.168-1.696-2.701-1.696-4.601V6.352c0-1.911.566-3.445 1.696-4.6C75.96.583 77.478 0 79.374 0c1.907 0 3.426.584 4.557 1.751 1.13 1.156 1.695 2.69 1.695 4.601v1.202h-3.94V6.352c0-.721-.205-1.299-.616-1.734-.41-.446-.976-.67-1.696-.67-.719 0-1.284.224-1.695.67-.411.435-.617 1.013-.617 1.734v14.146c0 .721.206 1.305.617 1.751.41.435.976.652 1.695.652.72 0 1.285-.217 1.696-.652.411-.446.617-1.03.617-1.751v-1.202h3.94zM34.937 40c-.424 0-.822-.045-1.194-.135-.372-.09-.7-.228-.982-.414a2.024 2.024 0 01-.655-.723c-.154-.296-.231-.646-.231-1.051 0-.418.087-.787.26-1.108a3.07 3.07 0 01.664-.83c.27-.243.556-.462.857-.655.309-.199.597-.389.867-.569.27-.18.491-.362.664-.549a.931.931 0 00.26-.636.423.423 0 00-.067-.231.407.407 0 00-.202-.183.786.786 0 00-.386-.078c-.109 0-.22.013-.337.039-.115.02-.227.048-.337.087a1.67 1.67 0 00-.308.125c.167.135.331.286.491.453.167.16.318.318.453.472.141.148.25.277.327.386.148.077.308.148.482.212a5.74 5.74 0 001.165.26c.212.02.43.03.655.03.244 0 .417.063.52.192a.694.694 0 01.154.462c0 .2-.068.367-.203.502-.134.128-.324.193-.568.193a6.97 6.97 0 01-1.367-.116 3.984 3.984 0 01-1.01-.347 7.979 7.979 0 01-.916-.588 2.524 2.524 0 00-.337-.444 7.937 7.937 0 00-.452-.472 5.16 5.16 0 00-.376-.347.807.807 0 01-.096-.193 4.824 4.824 0 01-.125-.366 1.323 1.323 0 01-.048-.27c0-.128.06-.273.183-.433.122-.168.292-.325.51-.473.225-.154.485-.28.78-.376a2.91 2.91 0 01.963-.154c.629 0 1.081.135 1.357.405.283.263.424.604.424 1.022 0 .385-.087.729-.26 1.031a3.328 3.328 0 01-.655.829 8.17 8.17 0 01-.857.694c-.295.212-.577.418-.847.617a4.18 4.18 0 00-.664.617c-.167.212-.25.44-.25.684a.82.82 0 00.153.51c.11.142.248.255.414.338.167.084.35.142.55.174.205.038.404.058.596.058a4.615 4.615 0 001.29-.202 6.17 6.17 0 00.732-.252l.405 1.157a5.71 5.71 0 01-.78.338 4.92 4.92 0 01-.838.23 4.62 4.62 0 01-.828.078z" fill="#E4E7EC"/><path d="M37.29 36.25l.096-1.349c.282 0 .504-.02.664-.058.167-.038.286-.109.356-.212.071-.11.106-.263.106-.462 0-.18-.025-.396-.077-.646a7.982 7.982 0 00-.183-.781 15.14 15.14 0 00-.23-.742l1.328-.366a10.292 10.292 0 01.424 1.657c.057.302.086.595.086.878 0 .353-.045.652-.135.896-.09.238-.215.437-.375.598-.154.154-.34.276-.559.366a2.883 2.883 0 01-.702.173 6.441 6.441 0 01-.8.049zm.375-5.619l-.164-.675a9.16 9.16 0 00.867-.183l-.096.241a1.202 1.202 0 01-.482-.337.883.883 0 01-.221-.588c0-.231.051-.418.154-.56a.886.886 0 01.395-.308c.16-.064.327-.096.5-.096a1.647 1.647 0 01.51.077l-.077.694-.192-.038a1.085 1.085 0 00-.212-.02.357.357 0 00-.231.087.237.237 0 00-.096.193c0 .109.038.205.115.289a.93.93 0 00.27.202.96.96 0 00.27.077l-.53.058c.173-.045.337-.09.49-.135.155-.051.3-.102.434-.154l.193.646c-.16.058-.35.122-.568.193-.212.064-.434.125-.665.183-.224.058-.446.11-.664.154zm5.733 5.619c-.597 0-1.06-.06-1.387-.183-.32-.122-.545-.311-.674-.568-.128-.264-.202-.595-.221-.993l-.203-5.36h1.349l.202 4.714c.013.296.045.517.096.665a.462.462 0 00.289.299c.148.051.363.077.645.077.244 0 .417.064.52.193.11.122.164.276.164.462 0 .2-.068.367-.203.502-.134.128-.327.193-.577.193z" fill="#E4E7EC"/><path d="M53.069 36.25c-.328 0-.642-.028-.944-.086a4.54 4.54 0 01-.819-.25 2.404 2.404 0 01-.587-.348l.867-.935c.23.097.468.167.712.212.244.039.533.058.867.058.244 0 .417.064.52.193a.667.667 0 01.163.462.68.68 0 01-.202.502c-.135.128-.327.193-.578.193zm-4.67.126a12.07 12.07 0 01-1.493-.077 4.104 4.104 0 01-.953-.222 1.767 1.767 0 01-.578-.347 1.883 1.883 0 01-.346-.443l.27-.078c-.161.309-.344.537-.55.685-.205.148-.42.244-.645.289a3.522 3.522 0 01-.693.068l.096-1.35c.2 0 .356-.032.472-.096a.686.686 0 00.28-.318 2.89 2.89 0 00.211-.588c.064-.245.141-.543.231-.897l1.223.299a51.78 51.78 0 00-.116.453l-.067.337c-.013.09-.02.164-.02.222 0 .122.03.231.087.328.058.09.17.164.337.221.167.052.411.094.732.126.328.026.755.038 1.28.038.56 0 1.025-.019 1.397-.058a4.3 4.3 0 00.886-.183c.224-.083.385-.183.481-.298a.677.677 0 00.058-.752.617.617 0 00-.26-.27.933.933 0 00-.472-.106c-.23 0-.465.058-.703.173a3.27 3.27 0 00-.683.444c-.225.18-.44.382-.645.607a8.27 8.27 0 00-.54.675l-1.444-.164a9.74 9.74 0 01.847-1.166 6.94 6.94 0 011.011-.984c.36-.289.732-.517 1.117-.684.386-.167.777-.25 1.175-.25.43 0 .796.083 1.098.25.302.167.533.398.693.694.16.296.24.636.24 1.022 0 .469-.134.883-.404 1.243-.263.36-.69.643-1.28.848-.584.206-1.361.309-2.33.309zm1.704-5.263a.712.712 0 01-.51-.202.681.681 0 01-.203-.502.71.71 0 01.203-.51.696.696 0 01.51-.213c.192 0 .356.071.49.212a.697.697 0 01.213.511c0 .2-.07.367-.212.502a.668.668 0 01-.491.202z" fill="#E4E7EC"/><path d="M53.077 36.25l.096-1.349c.244 0 .437-.022.578-.067a.603.603 0 00.347-.27c.09-.142.164-.347.221-.617.065-.27.129-.63.193-1.08l1.261.212a5.327 5.327 0 01-.058.338l-.057.395c-.013.128-.02.25-.02.366 0 .154.033.286.097.395.07.103.192.184.366.241.18.058.436.087.77.087.244 0 .417.064.52.193a.694.694 0 01.154.462.68.68 0 01-.202.502c-.129.128-.318.193-.568.193-.443 0-.803-.042-1.079-.126-.276-.083-.481-.225-.616-.424-.135-.2-.221-.472-.26-.82h.462c-.115.31-.25.557-.404.743-.154.18-.328.315-.52.405a1.98 1.98 0 01-.616.173 4.431 4.431 0 01-.665.049zm1.714 2.217a.674.674 0 01-.481-.192.643.643 0 01-.193-.473.71.71 0 01.193-.491.657.657 0 01.481-.203c.186 0 .344.068.472.203a.69.69 0 01.202.491.628.628 0 01-.202.473.641.641 0 01-.472.192z" fill="#E4E7EC"/><path d="M56.773 36.25l.096-1.349c.295 0 .507-.029.636-.087.128-.064.205-.18.23-.347.026-.173.033-.424.02-.752l-.174-4.568h1.358l.193 4.665a5.6 5.6 0 01-.048 1.012c-.039.296-.138.55-.299.761-.154.212-.395.376-.722.492-.321.116-.751.174-1.29.174zm3.628-.048l-.202-7.055h1.348l.203 7.055H60.4zm4.502-.27a4.278 4.278 0 01.183-1.195 6.02 6.02 0 01.318-.858l1.184.415c-.07.199-.132.382-.183.55-.051.16-.09.31-.116.452a2.22 2.22 0 00-.038.405c0 .29.07.54.212.752.147.218.346.386.597.501.257.122.552.183.886.183.545 0 .962-.09 1.251-.27.296-.173.495-.45.597-.828.11-.386.151-.884.126-1.495l-.193-5.397h1.358l.144 4.559c.013.321.058.569.135.742a.647.647 0 00.356.357c.167.064.382.096.645.096.244 0 .417.064.52.193a.694.694 0 01.154.462.68.68 0 01-.202.502c-.135.128-.324.193-.568.193a1.945 1.945 0 01-.915-.241 1.34 1.34 0 01-.385-.328 1.2 1.2 0 01-.221-.52l.52-.26c0 .648-.078 1.197-.232 1.647-.147.45-.365.813-.654 1.09a2.458 2.458 0 01-1.05.597 4.78 4.78 0 01-1.425.193c-.41 0-.8-.052-1.165-.154a2.928 2.928 0 01-.953-.463 2.21 2.21 0 01-.655-.78c-.154-.31-.231-.675-.231-1.1z" fill="#E4E7EC"/><path d="M72.269 36.25l.096-1.34c.25.007.482.004.694-.009a6.27 6.27 0 001.02-.145c.135-.032.247-.06.337-.086.219-.07.405-.154.559-.25.154-.104.273-.22.356-.348a.746.746 0 00.125-.414.848.848 0 00-.077-.347.706.706 0 00-.202-.3.472.472 0 00-.318-.115.525.525 0 00-.318.106.747.747 0 00-.23.29.896.896 0 00.009.79c.064.115.154.228.27.337.115.11.253.212.414.309l-1.281.491a5.225 5.225 0 01-.404-.434 2.315 2.315 0 01-.309-.52 1.83 1.83 0 01-.115-.665c0-.296.058-.566.173-.81.116-.244.27-.453.462-.626a2.09 2.09 0 01.645-.415c.238-.096.476-.144.713-.144a1.821 1.821 0 011.656.973c.16.29.241.604.241.945 0 .315-.058.597-.173.848a2.241 2.241 0 01-.472.655c-.193.187-.408.35-.645.492a4.83 4.83 0 01-.703.357c-.116.051-.26.1-.433.144-.174.045-.37.087-.588.126a10.259 10.259 0 01-1.502.105zm5.084 0a10.3 10.3 0 01-1.098-.057 7.372 7.372 0 01-1.001-.174 4.177 4.177 0 01-.79-.28l.665-1.04c.192.051.417.093.674.125a18.515 18.515 0 001.646.078c.244 0 .418.063.52.192.11.122.164.276.164.462a.68.68 0 01-.202.502c-.135.128-.328.193-.578.193zm-1.618-5.523a.674.674 0 01-.481-.192.664.664 0 01-.193-.473.675.675 0 01.674-.684c.18 0 .334.067.463.203a.675.675 0 01.192.481c0 .18-.064.338-.192.473a.63.63 0 01-.463.192zm-1.665-.01a.674.674 0 01-.482-.192.664.664 0 01-.192-.472.675.675 0 01.674-.685c.18 0 .333.068.462.203a.675.675 0 01.192.482c0 .18-.064.337-.192.472a.63.63 0 01-.462.193z" fill="#E4E7EC"/><path d="M77.365 36.25l.097-1.349c.244 0 .436-.022.578-.067a.603.603 0 00.346-.27c.09-.142.164-.347.222-.617.064-.27.128-.63.192-1.08l1.262.212a5.327 5.327 0 01-.058.338c-.02.128-.039.26-.058.395-.013.128-.02.25-.02.366 0 .154.033.286.097.395.07.103.193.184.366.241.18.058.437.087.77.087.244 0 .417.064.52.193a.693.693 0 01.154.462.68.68 0 01-.202.502c-.128.128-.318.193-.568.193-.443 0-.802-.042-1.078-.126-.276-.083-.482-.225-.617-.424-.134-.2-.221-.472-.26-.82h.462c-.115.31-.25.557-.404.743-.154.18-.327.315-.52.405-.192.09-.398.148-.616.173a4.432 4.432 0 01-.665.049zm1.965-4.366a.712.712 0 01-.51-.202.681.681 0 01-.203-.502c0-.199.068-.369.203-.51a.695.695 0 01.51-.212c.192 0 .356.07.49.212a.697.697 0 01.213.51c0 .2-.07.367-.212.502a.668.668 0 01-.491.202z" fill="#E4E7EC"/><path d="M81.061 36.25l.096-1.349c.283 0 .504-.02.665-.058.166-.038.285-.109.356-.212.07-.11.106-.263.106-.462 0-.18-.026-.396-.077-.646a7.954 7.954 0 00-.183-.781c-.077-.27-.154-.517-.231-.742l1.328-.366a10.196 10.196 0 01.424 1.657c.058.302.087.595.087.878 0 .353-.045.652-.135.896-.09.238-.215.437-.376.598a1.68 1.68 0 01-.558.366 2.885 2.885 0 01-.703.173 6.441 6.441 0 01-.799.049zm1.386-5.416a.712.712 0 01-.51-.203.681.681 0 01-.202-.501c0-.2.067-.37.202-.511a.695.695 0 01.51-.212c.193 0 .357.07.492.212a.697.697 0 01.211.51c0 .2-.07.367-.211.502a.668.668 0 01-.491.203z" fill="#E4E7EC"/></svg>