<svg width="286" height="65" fill="none" xmlns="http://www.w3.org/2000/svg"><path d="M8.831 30.997L0 .89h5.643l3.188 13.812h.176L12.649.889h4.6l3.643 13.843h.175L24.265.889h5.633l-8.454 30.108-2.605-9.03-3.807-12.783h-.165L11.06 21.967l-2.229 9.03z" fill="#D91717"/><path d="M8.831 30.5L0 60.61h5.643l3.188-13.812h.176l3.642 13.812h4.6l3.643-13.843h.175l3.198 13.843h5.633L21.444 30.5l-2.605 9.03-3.807 12.783h-.165L11.06 39.53 8.831 30.5z" fill="#2BAE42"/><path d="M35.002.89h5.633L32.18 30.996h-5.764L35.002.89z" fill="#202321"/><path d="M35.002 61.029h5.633L32.18 30.92h-5.764l8.585 30.108zm16.867-16.166L47.746 12.75h5.041l2.649 23.486h-.598l3.866-23.486h4.059l3.845 23.486h-.577L68.68 12.75h5.02l-4.123 32.114H64.28l-3.93-21.088h.81l-3.994 21.088H51.87zm32.635.535c-1.495 0-2.798-.32-3.909-.963a6.894 6.894 0 01-2.606-2.74c-.612-1.17-.919-2.534-.919-4.09v-8.949c0-1.541.307-2.897.919-4.068.627-1.184 1.495-2.098 2.606-2.74 1.11-.656 2.414-.985 3.91-.985 2.25 0 4.044.714 5.382 2.141 1.353 1.427 2.03 3.311 2.03 5.652v5.545H81V29.92h6.323v-1.584c0-.856-.25-1.549-.748-2.077s-1.189-.792-2.072-.792-1.58.264-2.093.792c-.499.529-.748 1.22-.748 2.077v9.591c0 .857.25 1.55.748 2.077.513.528 1.21.792 2.093.792s1.574-.264 2.072-.792c.499-.528.748-1.22.748-2.077v-.749h4.593v.428c0 2.327-.677 4.21-2.03 5.652-1.338 1.428-3.133 2.141-5.383 2.141zm22.553-.535V12.75h4.529l6.771 25.755h-1.153l6.771-25.755h4.529v32.114h-4.593V26.151l.577.107-5.063 18.605h-3.289l-5.063-18.605.577-.107v18.712h-4.593zm34.229.535c-1.495 0-2.798-.32-3.909-.963a6.902 6.902 0 01-2.606-2.74c-.612-1.17-.918-2.534-.918-4.09v-8.949c0-1.541.306-2.897.918-4.068.627-1.184 1.496-2.098 2.606-2.74 1.111-.656 2.414-.985 3.909-.985 2.251 0 4.045.714 5.383 2.141 1.353 1.427 2.03 3.311 2.03 5.652v8.95c0 2.326-.677 4.21-2.03 5.651-1.338 1.428-3.132 2.141-5.383 2.141zm0-4.603c.883 0 1.574-.264 2.073-.792.498-.528.747-1.22.747-2.077v-9.59c0-.857-.249-1.55-.747-2.078-.499-.528-1.19-.792-2.073-.792-.882 0-1.58.264-2.093.792-.498.529-.748 1.22-.748 2.077v9.591c0 .857.25 1.55.748 2.077.513.528 1.211.792 2.093.792zm15.867 4.068l-6.259-23.443h4.977l4.507 18.198h-1.025l4.379-18.198h4.977l-6.152 23.443h-5.404zm21.098.535c-1.495 0-2.798-.32-3.909-.963a6.9 6.9 0 01-2.606-2.74c-.612-1.17-.918-2.534-.918-4.09v-8.949c0-1.541.306-2.897.918-4.068.627-1.184 1.495-2.098 2.606-2.74 1.111-.656 2.414-.985 3.909-.985 2.25 0 4.045.714 5.383 2.141 1.353 1.427 2.03 3.311 2.03 5.652v5.545h-10.916V29.92h6.323v-1.584c0-.856-.249-1.549-.748-2.077-.498-.528-1.189-.792-2.072-.792s-1.58.264-2.093.792c-.499.529-.748 1.22-.748 2.077v9.591c0 .857.249 1.55.748 2.077.513.528 1.21.792 2.093.792s1.574-.264 2.072-.792c.499-.528.748-1.22.748-2.077v-.749h4.593v.428c0 2.327-.677 4.21-2.03 5.652-1.338 1.428-3.133 2.141-5.383 2.141zm37.677-9.27v1.499c0 2.369-.705 4.282-2.115 5.737-1.41 1.456-3.304 2.184-5.682 2.184-2.364 0-4.258-.728-5.682-2.184-1.41-1.455-2.115-3.368-2.115-5.737V19.985c0-2.383.705-4.296 2.115-5.737 1.424-1.456 3.318-2.184 5.682-2.184 2.378 0 4.272.728 5.682 2.184 1.41 1.441 2.115 3.354 2.115 5.737v1.5h-4.913v-1.5c0-.899-.256-1.62-.769-2.162-.513-.557-1.218-.835-2.115-.835-.897 0-1.602.278-2.115.835-.512.542-.769 1.263-.769 2.162v17.642c0 .899.257 1.627.769 2.183.513.543 1.218.814 2.115.814.897 0 1.602-.271 2.115-.814.513-.556.769-1.284.769-2.183v-1.499h4.913zm9.152 9.27c-1.993 0-3.524-.6-4.592-1.798-1.054-1.199-1.581-2.72-1.581-4.56 0-1.085.171-1.998.513-2.74a5.892 5.892 0 011.367-1.863 8.448 8.448 0 011.858-1.242c.769-.4 1.559-.72 2.371-.963a52.036 52.036 0 002.265-.771c.697-.271 1.26-.607 1.687-1.006.427-.414.641-.964.641-1.649v-.47c0-.857-.256-1.55-.769-2.078-.499-.528-1.189-.792-2.072-.792-.897 0-1.595.264-2.094.792-.484.529-.726 1.22-.726 2.077v1.07h-4.593v-.749c0-2.34.67-4.225 2.008-5.652 1.353-1.427 3.155-2.14 5.405-2.14 1.495 0 2.798.328 3.909.984 1.111.642 1.972 1.549 2.585 2.719.626 1.17.939 2.534.939 4.09v16.206h-4.592v-3.532l.79 1.027c-.47.985-1.16 1.742-2.072 2.27-.911.513-1.994.77-3.247.77zm1.367-4.26c.883 0 1.631-.257 2.243-.77.613-.515.919-1.328.919-2.442v-3.575c-.541.4-1.175.692-1.901.878a14.74 14.74 0 00-2.115.728c-.669.271-1.189.606-1.559 1.006-.356.4-.534.92-.534 1.563 0 .713.249 1.327.747 1.841.513.514 1.246.77 2.2.77zm12.809 3.725V21.42h4.593v3.682l-.833-.985c.498-.999 1.182-1.748 2.05-2.248.869-.5 1.873-.749 3.012-.749h1.047v4.603h-2.478c-.869 0-1.552.236-2.051.707-.498.456-.747 1.113-.747 1.97v16.463h-4.593zm19.242 7.836c-2.236 0-4.03-.72-5.383-2.163-1.353-1.427-2.029-3.31-2.029-5.651v-.814h4.592v1.135c0 .856.25 1.548.748 2.076.499.543 1.189.814 2.072.814s1.574-.271 2.072-.814c.513-.528.769-1.22.769-2.076v-6.744l.812 1.049a5.287 5.287 0 01-1.965 2.14c-.841.5-1.859.75-3.055.75a6.576 6.576 0 01-2.948-.685c-.911-.471-1.652-1.249-2.221-2.334-.57-1.084-.855-2.569-.855-4.453v-6.594c0-1.87.285-3.347.855-4.432.569-1.099 1.31-1.877 2.221-2.333a6.412 6.412 0 012.948-.707c1.196 0 2.214.257 3.055.77.84.5 1.495 1.207 1.965 2.12l-.812 1.07V21.42h4.593v23.529c0 1.556-.313 2.911-.94 4.068-.612 1.17-1.474 2.076-2.585 2.718-1.111.643-2.414.964-3.909.964zm.043-14.901c.883 0 1.566-.257 2.051-.77.498-.529.747-1.228.747-2.099v-6.594c0-.856-.249-1.549-.747-2.077-.485-.528-1.175-.792-2.072-.792-.883 0-1.574.264-2.073.792-.498.529-.747 1.22-.747 2.077v6.594c0 .856.249 1.549.747 2.077.499.528 1.197.792 2.094.792zm19.507 7.6c-1.495 0-2.798-.32-3.909-.963a6.889 6.889 0 01-2.606-2.74c-.613-1.17-.919-2.534-.919-4.09v-8.949c0-1.541.306-2.897.919-4.068.626-1.184 1.495-2.098 2.606-2.74 1.111-.656 2.414-.985 3.909-.985 2.25 0 4.044.714 5.383 2.141 1.353 1.427 2.029 3.311 2.029 5.652v8.95c0 2.326-.676 4.21-2.029 5.651-1.339 1.428-3.133 2.141-5.383 2.141zm0-4.603c.883 0 1.574-.264 2.072-.792s.748-1.22.748-2.077v-9.59c0-.857-.25-1.55-.748-2.078-.498-.528-1.189-.792-2.072-.792s-1.581.264-2.093.792c-.499.529-.748 1.22-.748 2.077v9.591c0 .857.249 1.55.748 2.077.512.528 1.21.792 2.093.792zM57.279 64.889a7.372 7.372 0 01-1.737-.196 4.48 4.48 0 01-1.428-.603 2.944 2.944 0 01-.953-1.051c-.224-.43-.336-.94-.336-1.528 0-.608.127-1.145.378-1.612.253-.458.575-.86.967-1.206a9.38 9.38 0 011.246-.953c.448-.29.868-.565 1.26-.827a5.43 5.43 0 00.966-.8c.253-.28.379-.588.379-.924a.614.614 0 00-.098-.337.59.59 0 00-.294-.266c-.131-.075-.318-.112-.56-.112-.16 0-.323.019-.49.056-.169.028-.332.07-.49.126a2.371 2.371 0 00-.449.182c.243.197.48.416.714.66.243.233.462.462.658.686.206.215.364.402.477.56.214.113.448.216.7.31.252.083.518.158.798.223.29.066.588.117.896.155.308.028.625.042.952.042.355 0 .607.093.756.28.15.178.224.402.224.673a.99.99 0 01-.294.729c-.196.187-.471.28-.826.28-.775 0-1.437-.056-1.988-.168a5.802 5.802 0 01-1.47-.505 11.69 11.69 0 01-1.33-.855 3.683 3.683 0 00-.491-.645 11.565 11.565 0 00-.658-.686 7.5 7.5 0 00-.546-.505c-.028-.028-.075-.122-.14-.28a7.115 7.115 0 01-.182-.533 1.92 1.92 0 01-.07-.393c0-.187.088-.397.266-.63.177-.243.425-.472.742-.687a4.41 4.41 0 011.134-.547 4.22 4.22 0 011.4-.224c.915 0 1.573.196 1.975.588.41.384.616.879.616 1.486 0 .561-.126 1.061-.378 1.5a4.84 4.84 0 01-.952 1.206c-.392.364-.808.7-1.246 1.009-.43.308-.84.607-1.233.897-.392.3-.714.598-.966.897-.243.309-.364.64-.364.995 0 .3.075.547.224.743.159.206.36.37.602.491.243.122.509.206.798.252a4.7 4.7 0 00.868.084 6.568 6.568 0 001.877-.294c.345-.093.7-.215 1.064-.364l.588 1.682c-.355.187-.733.35-1.134.49-.401.15-.807.262-1.218.337a6.704 6.704 0 01-1.204.112z" fill="#202321"/><path d="M60.7 59.436l.14-1.962c.41 0 .732-.028.966-.084.243-.057.415-.16.518-.309.103-.159.154-.383.154-.673 0-.261-.037-.575-.112-.939a11.602 11.602 0 00-.266-1.135 21.843 21.843 0 00-.336-1.08l1.932-.532a14.946 14.946 0 01.616 2.41c.085.44.127.865.127 1.276 0 .514-.066.949-.197 1.304a2.42 2.42 0 01-.546.869 2.456 2.456 0 01-.812.533 4.198 4.198 0 01-1.022.252c-.373.047-.761.07-1.162.07zm.546-8.172l-.238-.982c.326-.056.57-.102.728-.14.168-.037.345-.08.532-.126l-.14.35c-.243-.084-.476-.247-.7-.49a1.284 1.284 0 01-.322-.855c0-.337.074-.608.224-.813.15-.206.34-.355.574-.449.233-.093.476-.14.728-.14.14 0 .27.01.392.028.13.019.248.047.35.084l-.112 1.01c-.093-.02-.187-.038-.28-.056a1.57 1.57 0 00-.308-.029.52.52 0 00-.336.127.345.345 0 00-.14.28.6.6 0 00.168.42c.112.122.243.22.392.295.159.065.29.103.392.112l-.77.084c.252-.065.49-.13.714-.196.224-.075.434-.15.63-.224l.28.939c-.233.084-.508.177-.826.28-.308.094-.63.182-.966.266-.327.085-.649.16-.966.225zm8.337 8.172c-.868 0-1.54-.089-2.016-.266-.467-.178-.794-.453-.98-.827-.187-.383-.295-.865-.323-1.444l-.294-7.794h1.96l.295 6.855c.018.43.065.752.14.967.074.215.214.36.42.434.215.075.527.113.938.113.355 0 .607.093.756.28a.972.972 0 01.238.673.99.99 0 01-.294.729c-.196.187-.476.28-.84.28z" fill="#202321"/><path d="M83.647 59.436c-.476 0-.933-.042-1.372-.126a6.606 6.606 0 01-1.19-.364 3.497 3.497 0 01-.854-.505l1.26-1.36c.336.14.681.243 1.036.308.355.057.775.085 1.26.085.355 0 .607.093.756.28a.972.972 0 01.238.673.99.99 0 01-.294.729c-.196.187-.476.28-.84.28zm-6.791.182c-.868 0-1.592-.037-2.17-.112-.57-.075-1.032-.182-1.387-.322s-.635-.309-.84-.505a2.742 2.742 0 01-.504-.645l.392-.112c-.234.449-.5.78-.798.995a2.41 2.41 0 01-.939.421 5.126 5.126 0 01-1.008.098l.14-1.962c.29 0 .518-.047.686-.14a.997.997 0 00.406-.463 4.2 4.2 0 00.308-.855c.094-.355.206-.79.337-1.304l1.778.435c-.066.252-.122.472-.168.659l-.098.49c-.019.13-.028.238-.028.322a.91.91 0 00.126.477c.084.131.247.238.49.322.243.075.597.136 1.064.183.476.037 1.097.056 1.863.056a20.3 20.3 0 002.03-.084c.541-.066.971-.155 1.288-.267.327-.121.56-.266.7-.434a.947.947 0 00.21-.603.984.984 0 00-.125-.49.896.896 0 00-.378-.393c-.178-.103-.407-.154-.687-.154-.336 0-.676.084-1.022.252a4.736 4.736 0 00-.994.645c-.327.262-.64.556-.938.883-.29.327-.551.654-.785.981l-2.1-.238c.364-.589.775-1.154 1.232-1.696a10.09 10.09 0 011.47-1.43 7.107 7.107 0 011.625-.995 4.257 4.257 0 011.708-.365c.626 0 1.158.122 1.597.365.438.243.775.58 1.008 1.009.233.43.35.925.35 1.486 0 .682-.196 1.285-.588 1.808-.383.523-1.004.935-1.862 1.234-.85.299-1.98.448-3.39.448zm2.478-7.653c-.29 0-.537-.099-.742-.295a.99.99 0 01-.294-.729c0-.29.098-.537.294-.743.206-.205.453-.308.742-.308a.95.95 0 01.714.308c.206.206.308.454.308.743 0 .29-.102.533-.308.73a.972.972 0 01-.714.294z" fill="#202321"/><path d="M83.66 59.436l.14-1.962c.355 0 .635-.033.84-.098a.878.878 0 00.504-.393c.131-.206.238-.505.322-.897.094-.393.187-.916.28-1.57l1.835.308c-.019.14-.047.304-.084.49a83.59 83.59 0 00-.084.576 5.36 5.36 0 00-.028.532c0 .225.046.416.14.575.102.15.28.266.532.35.261.085.635.127 1.12.127.355 0 .607.093.756.28.15.178.224.402.224.673a.99.99 0 01-.294.729c-.186.187-.462.28-.826.28-.644 0-1.167-.06-1.568-.182-.402-.122-.7-.327-.896-.617-.197-.29-.322-.687-.378-1.191h.672c-.168.448-.364.808-.589 1.079a2.249 2.249 0 01-.756.589c-.28.13-.578.215-.896.252-.308.047-.63.07-.966.07zm2.493 3.224a.98.98 0 01-.7-.28.935.935 0 01-.28-.687c0-.271.093-.51.28-.715a.956.956 0 01.7-.294c.27 0 .499.098.686.294.196.206.294.444.294.715 0 .27-.098.5-.294.687a.933.933 0 01-.686.28z" fill="#202321"/><path d="M89.034 59.436l.14-1.962c.43 0 .738-.042.924-.127.187-.093.3-.261.337-.504.037-.253.046-.617.028-1.094l-.252-6.644h1.974l.28 6.785a8.149 8.149 0 01-.07 1.471c-.056.43-.2.8-.434 1.108-.224.308-.574.547-1.05.715-.467.168-1.093.252-1.877.252zm5.278-.07l-.294-10.261h1.96l.294 10.261h-1.96zm6.546-.392c0-.215.019-.468.056-.757a6.86 6.86 0 01.21-.982c.103-.373.257-.79.462-1.247l1.722.602c-.102.29-.191.556-.266.8-.074.233-.13.453-.168.658a3.173 3.173 0 00-.056.59c0 .42.103.784.308 1.093.215.317.505.56.869.728.373.178.802.267 1.288.267.793 0 1.4-.131 1.82-.393.43-.252.719-.654.869-1.205.158-.561.219-1.285.182-2.173l-.28-7.85h1.974l.21 6.63c.019.468.084.828.196 1.08a.941.941 0 00.518.518c.243.094.556.14.938.14.355 0 .607.094.757.281.149.178.224.402.224.673a.99.99 0 01-.294.729c-.196.187-.472.28-.827.28-.205 0-.424-.028-.658-.084a2.596 2.596 0 01-.672-.266 1.949 1.949 0 01-.56-.477 1.739 1.739 0 01-.322-.757l.756-.378c0 .944-.112 1.743-.336 2.397-.215.654-.532 1.182-.952 1.584-.411.401-.92.691-1.527.869-.597.187-1.288.28-2.072.28a6.232 6.232 0 01-1.694-.224 4.262 4.262 0 01-1.387-.673 3.215 3.215 0 01-.952-1.136c-.224-.448-.336-.98-.336-1.597z" fill="#202321"/><path d="M111.571 59.436l.14-1.948c.364.009.7.004 1.008-.014.308-.02.583-.047.826-.084a9.728 9.728 0 001.148-.253c.318-.103.588-.224.812-.364.225-.15.397-.318.519-.505a1.09 1.09 0 00.182-.603c0-.168-.038-.336-.112-.504a1.04 1.04 0 00-.294-.435.689.689 0 00-.463-.168.763.763 0 00-.462.154c-.14.103-.252.243-.336.42a1.303 1.303 0 00-.126.59c0 .196.047.383.14.56.094.168.224.332.392.49.168.16.369.31.602.45l-1.862.714a7.69 7.69 0 01-.588-.63 3.373 3.373 0 01-.448-.758 2.663 2.663 0 01-.168-.967c0-.43.084-.822.252-1.177a2.84 2.84 0 01.672-.911c.28-.262.593-.463.938-.603a2.74 2.74 0 011.036-.21c.561 0 1.046.13 1.457.392.411.262.728.603.952 1.023.233.42.35.879.35 1.374 0 .458-.084.87-.252 1.234a3.266 3.266 0 01-.686.953c-.28.27-.593.51-.938.715a6.988 6.988 0 01-1.023.518 4.127 4.127 0 01-.63.21 11.19 11.19 0 01-.854.183 14.848 14.848 0 01-2.184.154zm7.393 0c-.541 0-1.073-.028-1.596-.084a10.708 10.708 0 01-1.456-.252 6.08 6.08 0 01-1.149-.407l.967-1.514c.28.075.606.136.98.182.383.038.779.066 1.19.085.42.018.822.028 1.204.028.355 0 .607.093.756.28a.971.971 0 01.239.673c0 .29-.098.532-.295.729-.196.187-.476.28-.84.28zm-2.352-8.032a.979.979 0 01-.7-.28.964.964 0 01-.28-.687.98.98 0 01.98-.996c.261 0 .485.099.672.295a.98.98 0 01.28.7.967.967 0 01-.28.688.917.917 0 01-.672.28zm-2.423-.014a.979.979 0 01-.7-.28.964.964 0 01-.28-.687.98.98 0 01.98-.996c.262 0 .486.099.672.295a.98.98 0 01.28.7.967.967 0 01-.28.688.914.914 0 01-.672.28z" fill="#202321"/><path d="M118.982 59.436l.14-1.962c.355 0 .635-.033.841-.098a.881.881 0 00.504-.393c.13-.206.238-.505.322-.897.093-.393.187-.916.28-1.57l1.834.308c-.018.14-.046.304-.084.49a83.59 83.59 0 00-.084.576 5.58 5.58 0 00-.028.532c0 .225.047.416.14.575.103.15.28.266.532.35.262.085.635.127 1.121.127.354 0 .606.093.756.28.149.178.224.402.224.673a.99.99 0 01-.294.729c-.187.187-.462.28-.826.28-.644 0-1.167-.06-1.569-.182-.401-.122-.7-.327-.896-.617-.196-.29-.322-.687-.378-1.191h.672c-.168.448-.364.808-.588 1.079a2.248 2.248 0 01-.756.589 2.92 2.92 0 01-.896.252c-.308.047-.63.07-.967.07zm2.857-6.35c-.289 0-.537-.098-.742-.294a.99.99 0 01-.294-.73c0-.289.098-.537.294-.742a1.01 1.01 0 01.742-.309.95.95 0 01.714.309c.206.205.308.453.308.743s-.102.532-.308.729a.972.972 0 01-.714.294z" fill="#202321"/><path d="M124.357 59.436l.14-1.962c.411 0 .733-.028.966-.084.243-.057.415-.16.518-.309.103-.159.154-.383.154-.673a4.76 4.76 0 00-.112-.939 11.515 11.515 0 00-.266-1.135 21.843 21.843 0 00-.336-1.08l1.932-.532a14.901 14.901 0 01.617 2.41 6.8 6.8 0 01.126 1.276c0 .514-.066.949-.196 1.304a2.418 2.418 0 01-.547.869 2.448 2.448 0 01-.812.533 4.2 4.2 0 01-1.022.252c-.373.047-.761.07-1.162.07zm2.016-7.878c-.289 0-.537-.098-.742-.294a.99.99 0 01-.294-.73c0-.289.098-.536.294-.742a1.01 1.01 0 01.742-.309.95.95 0 01.714.309c.206.206.308.453.308.743s-.102.533-.308.729a.972.972 0 01-.714.294z" fill="#202321"/></svg>