<svg width="86" height="40" viewBox="0 0 86 40" fill="none" xmlns="http://www.w3.org/2000/svg">
<path d="M5.4333 18.8361L0 0.312502H3.47198L5.4333 8.80996H5.54121L7.78181 0.312502H10.6127L12.8533 8.82896H12.9612L14.9289 0.312502H18.3945L13.1932 18.8361L11.5902 13.2803L9.24804 5.41604H9.14648L6.80432 13.2803L5.4333 18.8361Z" fill="#D91717"/>
<path d="M5.43332 18.5305L1.39698e-05 37.0541H3.472L5.43332 28.5566H5.54122L7.78182 37.0541H10.6127L12.8533 28.5376H12.9612L14.9289 37.0541H18.3945L13.1932 18.5305L11.5902 24.0863L9.24805 31.9506H9.1465L6.80434 24.0863L5.43332 18.5305Z" fill="#2BAE42"/>
<path d="M21.5344 0.3125H25L19.7986 18.8361H16.2529L21.5344 0.3125Z" fill="#202321"/>
<path d="M21.5344 37.3125H25L19.7986 18.7889H16.2529L21.5344 37.3125Z" fill="#202321"/>
<path d="M32.6809 26.3006L29.375 0.54936H33.4174L35.5414 19.3821H35.0618L38.1621 0.54936H41.4166L44.4998 19.3821H44.0373L46.1613 0.54936H50.1866L46.8807 26.3006H42.6328L39.481 9.39063H40.1319L36.9288 26.3006H32.6809Z" fill="#E4E7EC"/>
<path d="M52.497 26.3006V0.54936H56.1283L61.5582 21.2019H60.6332L66.0631 0.54936H69.6944V26.3006H66.0117V11.2962L66.4742 11.3821L62.4146 26.3006H59.7768L55.7172 11.3821L56.1797 11.2962V26.3006H52.497Z" fill="#E4E7EC"/>
<path d="M85.6265 19.2963V20.498C85.6265 22.3979 85.0612 23.9315 83.9307 25.0989C82.8002 26.2663 81.2815 26.85 79.3744 26.85C77.4789 26.85 75.9601 26.2663 74.8182 25.0989C73.6877 23.9315 73.1224 22.3979 73.1224 20.498V6.35198C73.1224 4.44066 73.6877 2.90703 74.8182 1.75109C75.9601 0.583696 77.4789 0 79.3744 0C81.2815 0 82.8002 0.583696 83.9307 1.75109C85.0612 2.90703 85.6265 4.44066 85.6265 6.35198V7.55371H81.6868V6.35198C81.6868 5.63095 81.4813 5.05297 81.0702 4.61806C80.6591 4.17171 80.0939 3.94853 79.3744 3.94853C78.655 3.94853 78.0898 4.17171 77.6787 4.61806C77.2676 5.05297 77.062 5.63095 77.062 6.35198V20.498C77.062 21.2191 77.2676 21.8027 77.6787 22.2491C78.0898 22.684 78.655 22.9015 79.3744 22.9015C80.0939 22.9015 80.6591 22.684 81.0702 22.2491C81.4813 21.8027 81.6868 21.2191 81.6868 20.498V19.2963H85.6265Z" fill="#E4E7EC"/>
<path d="M34.937 40C34.5133 40 34.1153 39.955 33.743 39.8651C33.3707 39.7751 33.0433 39.6369 32.7609 39.4506C32.4848 39.2642 32.2666 39.0233 32.1061 38.7277C31.952 38.4321 31.875 38.0819 31.875 37.677C31.875 37.2594 31.9617 36.8899 32.135 36.5686C32.3083 36.2537 32.5298 35.9774 32.7994 35.7397C33.069 35.4955 33.3546 35.277 33.6563 35.0842C33.9645 34.885 34.2533 34.6954 34.5229 34.5155C34.7925 34.3356 35.014 34.1525 35.1873 33.9661C35.3606 33.7733 35.4473 33.5613 35.4473 33.33C35.4473 33.2464 35.4248 33.1693 35.3799 33.0986C35.3414 33.0215 35.274 32.9605 35.1777 32.9155C35.0878 32.8641 34.9594 32.8384 34.7925 32.8384C34.6834 32.8384 34.5711 32.8512 34.4555 32.8769C34.34 32.8962 34.2276 32.9251 34.1185 32.9637C34.0094 32.9958 33.9067 33.0376 33.8104 33.089C33.9773 33.2239 34.141 33.3749 34.3015 33.542C34.4684 33.7027 34.6192 33.8601 34.754 34.0143C34.8952 34.1621 35.0044 34.2906 35.0814 34.3999C35.229 34.477 35.3895 34.5477 35.5628 34.6119C35.7362 34.6697 35.9191 34.7212 36.1117 34.7661C36.3107 34.8111 36.5161 34.8465 36.7279 34.8722C36.9398 34.8914 37.158 34.9011 37.3827 34.9011C37.6266 34.9011 37.7999 34.9653 37.9026 35.0939C38.0053 35.2159 38.0567 35.3702 38.0567 35.5565C38.0567 35.7557 37.9893 35.9228 37.8545 36.0577C37.7197 36.1862 37.5303 36.2505 37.2864 36.2505C36.7536 36.2505 36.2978 36.212 35.9191 36.1348C35.5468 36.0577 35.2098 35.9421 34.9081 35.7878C34.6128 35.6272 34.3079 35.4312 33.9933 35.1999C33.9163 35.0649 33.804 34.9171 33.6563 34.7565C33.5087 34.5894 33.3578 34.432 33.2038 34.2842C33.0561 34.1364 32.931 34.0207 32.8283 33.9372C32.809 33.9179 32.7769 33.8537 32.732 33.7444C32.687 33.6288 32.6453 33.5067 32.6068 33.3781C32.5747 33.2496 32.5586 33.1597 32.5586 33.1083C32.5586 32.9797 32.6196 32.8352 32.7416 32.6745C32.8636 32.5074 33.0337 32.35 33.2519 32.2022C33.4766 32.048 33.7366 31.9227 34.0319 31.8263C34.3271 31.7235 34.6481 31.6721 34.9947 31.6721C35.6238 31.6721 36.0764 31.807 36.3524 32.0769C36.6348 32.3404 36.7761 32.6809 36.7761 33.0986C36.7761 33.4842 36.6894 33.828 36.5161 34.13C36.3492 34.432 36.1309 34.7083 35.8613 34.9589C35.5917 35.2095 35.3061 35.4408 35.0044 35.6529C34.7091 35.865 34.4266 36.0706 34.157 36.2698C33.8874 36.4754 33.666 36.681 33.4926 36.8867C33.3257 37.0987 33.2423 37.3268 33.2423 37.571C33.2423 37.7766 33.2936 37.9469 33.3964 38.0819C33.5055 38.2232 33.6435 38.3357 33.8104 38.4192C33.9773 38.5028 34.1602 38.5606 34.3592 38.5927C34.5646 38.6313 34.7636 38.6506 34.9562 38.6506C35.1552 38.6506 35.3606 38.6345 35.5725 38.6024C35.7907 38.5702 36.0154 38.5188 36.2465 38.4482C36.484 38.3839 36.7279 38.3004 36.9783 38.1975L37.3827 39.3542C37.1387 39.4827 36.8788 39.5952 36.6027 39.6916C36.3267 39.7944 36.0475 39.8715 35.765 39.9229C35.4826 39.9743 35.2066 40 34.937 40Z" fill="#E4E7EC"/>
<path d="M37.2894 36.2505L37.3857 34.9011C37.6681 34.9011 37.8896 34.8818 38.0501 34.8432C38.217 34.8047 38.3357 34.734 38.4063 34.6312C38.477 34.5219 38.5123 34.3677 38.5123 34.1685C38.5123 33.9886 38.4866 33.7733 38.4352 33.5227C38.3903 33.2721 38.3293 33.0119 38.2523 32.742C38.1752 32.4721 38.0982 32.2247 38.0212 31.9998L39.35 31.6335C39.427 31.852 39.504 32.1058 39.5811 32.395C39.6581 32.6842 39.7223 32.983 39.7736 33.2914C39.8314 33.5934 39.8603 33.8858 39.8603 34.1685C39.8603 34.5219 39.8154 34.8208 39.7255 35.0649C39.6356 35.3027 39.5104 35.5019 39.35 35.6625C39.1959 35.8168 39.0097 35.9389 38.7915 36.0288C38.5797 36.1124 38.3454 36.1702 38.0886 36.2023C37.8318 36.2344 37.5654 36.2505 37.2894 36.2505ZM37.6649 30.6311L37.5012 29.9564C37.7259 29.9178 37.8928 29.8857 38.0019 29.86C38.1175 29.8343 38.2394 29.8054 38.3678 29.7732L38.2715 30.0142C38.1046 29.9564 37.9442 29.8439 37.7901 29.6768C37.6425 29.5033 37.5686 29.3074 37.5686 29.0889C37.5686 28.8575 37.62 28.6712 37.7227 28.5298C37.8254 28.3885 37.957 28.2856 38.1175 28.2214C38.278 28.1571 38.4449 28.125 38.6182 28.125C38.7145 28.125 38.8043 28.1314 38.8878 28.1443C38.9776 28.1571 39.0579 28.1764 39.1285 28.2021L39.0515 28.8961C38.9873 28.8833 38.9231 28.8704 38.8589 28.8575C38.7947 28.8447 38.7241 28.8383 38.6471 28.8383C38.5636 28.8383 38.4866 28.8672 38.416 28.925C38.3518 28.9764 38.3197 29.0407 38.3197 29.1178C38.3197 29.227 38.3582 29.3234 38.4352 29.407C38.5123 29.4905 38.6021 29.558 38.7048 29.6094C38.814 29.6544 38.9038 29.6801 38.9744 29.6865L38.4449 29.7443C38.6182 29.6993 38.7819 29.6544 38.9359 29.6094C39.09 29.558 39.2344 29.5066 39.3692 29.4552L39.5618 30.101C39.4013 30.1588 39.2119 30.223 38.9937 30.2937C38.7819 30.358 38.5604 30.419 38.3293 30.4769C38.1046 30.5347 37.8832 30.5861 37.6649 30.6311Z" fill="#E4E7EC"/>
<path d="M43.3977 36.2505C42.8008 36.2505 42.3386 36.1895 42.0112 36.0674C41.6902 35.9453 41.4656 35.7557 41.3372 35.4987C41.2088 35.2352 41.135 34.9043 41.1157 34.5059L40.9135 29.1467H42.2615L42.4638 33.8601C42.4766 34.1557 42.5087 34.3774 42.56 34.5252C42.6114 34.673 42.7077 34.7726 42.8489 34.824C42.9965 34.8754 43.2116 34.9011 43.494 34.9011C43.738 34.9011 43.9113 34.9653 44.014 35.0939C44.1231 35.2159 44.1777 35.3702 44.1777 35.5565C44.1777 35.7557 44.1103 35.9228 43.9755 36.0577C43.8407 36.1862 43.6481 36.2505 43.3977 36.2505Z" fill="#E4E7EC"/>
<path d="M53.0685 36.2505C52.7411 36.2505 52.4266 36.2216 52.1249 36.1638C51.8232 36.0995 51.5504 36.016 51.3065 35.9131C51.0689 35.8103 50.8732 35.6947 50.7191 35.5662L51.5857 34.6312C51.8168 34.7276 52.0543 34.7983 52.2982 34.8432C52.5422 34.8818 52.831 34.9011 53.1648 34.9011C53.4087 34.9011 53.5821 34.9653 53.6848 35.0939C53.7939 35.2159 53.8485 35.3702 53.8485 35.5565C53.8485 35.7557 53.7811 35.9228 53.6463 36.0577C53.5115 36.1862 53.3189 36.2505 53.0685 36.2505ZM48.3986 36.3758C47.8016 36.3758 47.3041 36.3501 46.9061 36.2987C46.5145 36.2473 46.1968 36.1734 45.9528 36.077C45.7089 35.9806 45.5163 35.865 45.3751 35.73C45.2339 35.5951 45.1183 35.4473 45.0285 35.2866L45.2981 35.2095C45.1376 35.518 44.9547 35.7461 44.7492 35.8939C44.5438 36.0417 44.3288 36.1381 44.1041 36.183C43.8794 36.228 43.6483 36.2505 43.4108 36.2505L43.5071 34.9011C43.7061 34.9011 43.8634 34.8689 43.9789 34.8047C44.0945 34.7404 44.1876 34.6344 44.2582 34.4866C44.3352 34.3388 44.4058 34.1428 44.47 33.8986C44.5342 33.6545 44.6112 33.3557 44.7011 33.0022L45.924 33.301C45.879 33.4745 45.8405 33.6255 45.8084 33.7541C45.7827 33.8826 45.7603 33.995 45.741 34.0914C45.7282 34.1814 45.7217 34.2553 45.7217 34.3131C45.7217 34.4352 45.7506 34.5444 45.8084 34.6408C45.8662 34.7308 45.9785 34.8047 46.1454 34.8625C46.3123 34.9139 46.5562 34.9557 46.8772 34.9878C47.2046 35.0135 47.6315 35.0264 48.1578 35.0264C48.7163 35.0264 49.1817 35.0071 49.554 34.9685C49.9263 34.9236 50.2216 34.8625 50.4399 34.7854C50.6645 34.7019 50.825 34.6023 50.9213 34.4866C51.0176 34.3645 51.0657 34.2264 51.0657 34.0721C51.0657 33.95 51.0368 33.8376 50.9791 33.7348C50.9277 33.6255 50.8411 33.5356 50.7191 33.4649C50.5971 33.3942 50.4399 33.3589 50.2473 33.3589C50.0162 33.3589 49.7819 33.4167 49.5444 33.5324C49.3133 33.6416 49.0854 33.7894 48.8607 33.9758C48.6361 34.1557 48.421 34.3581 48.2156 34.583C48.0166 34.8079 47.8369 35.0328 47.6764 35.2577L46.2321 35.0939C46.4824 34.689 46.7649 34.3003 47.0794 33.9276C47.394 33.5549 47.731 33.2271 48.0904 32.9444C48.4499 32.6552 48.8222 32.4271 49.2074 32.26C49.5925 32.093 49.9841 32.0094 50.3821 32.0094C50.8122 32.0094 51.1781 32.093 51.4798 32.26C51.7815 32.4271 52.0126 32.6584 52.173 32.954C52.3335 33.2496 52.4138 33.5902 52.4138 33.9758C52.4138 34.4448 52.279 34.8593 52.0094 35.2192C51.7462 35.579 51.3193 35.8617 50.7287 36.0674C50.1446 36.273 49.3679 36.3758 48.3986 36.3758ZM50.1029 31.113C49.9039 31.113 49.7338 31.0456 49.5925 30.9106C49.4577 30.7757 49.3903 30.6086 49.3903 30.4094C49.3903 30.2102 49.4577 30.0399 49.5925 29.8985C49.7338 29.7572 49.9039 29.6865 50.1029 29.6865C50.2954 29.6865 50.4591 29.7572 50.5939 29.8985C50.7351 30.0399 50.8058 30.2102 50.8058 30.4094C50.8058 30.6086 50.7351 30.7757 50.5939 30.9106C50.4591 31.0456 50.2954 31.113 50.1029 31.113Z" fill="#E4E7EC"/>
<path d="M53.0773 36.2505L53.1735 34.9011C53.4175 34.9011 53.61 34.8786 53.7513 34.8336C53.8989 34.7886 54.0145 34.6987 54.0979 34.5637C54.1878 34.4223 54.2616 34.2167 54.3194 33.9468C54.3836 33.6769 54.4478 33.3171 54.5119 32.8673L55.7733 33.0793C55.7605 33.1757 55.7412 33.2882 55.7155 33.4167C55.6963 33.5452 55.677 33.6769 55.6578 33.8119C55.6449 33.9404 55.6385 34.0625 55.6385 34.1782C55.6385 34.3324 55.6706 34.4641 55.7348 34.5734C55.8054 34.6762 55.9274 34.7565 56.1007 34.8143C56.2804 34.8722 56.5372 34.9011 56.871 34.9011C57.1149 34.9011 57.2883 34.9653 57.391 35.0939C57.4937 35.2159 57.545 35.3702 57.545 35.5565C57.545 35.7557 57.4776 35.9228 57.3428 36.0577C57.2144 36.1862 57.0251 36.2505 56.7747 36.2505C56.3318 36.2505 55.9723 36.2087 55.6963 36.1252C55.4203 36.0417 55.2148 35.9003 55.08 35.7011C54.9452 35.5019 54.8586 35.2288 54.8201 34.8818H55.2823C55.1667 35.1902 55.0319 35.4376 54.8778 35.624C54.7238 35.8039 54.5505 35.9389 54.3579 36.0288C54.1653 36.1188 53.9599 36.1766 53.7416 36.2023C53.5298 36.2344 53.3083 36.2505 53.0773 36.2505ZM54.7912 38.4674C54.605 38.4674 54.4445 38.4032 54.3097 38.2747C54.1814 38.1461 54.1172 37.9887 54.1172 37.8024C54.1172 37.616 54.1814 37.4521 54.3097 37.3108C54.4445 37.1758 54.605 37.1084 54.7912 37.1084C54.9773 37.1084 55.1346 37.1758 55.263 37.3108C55.3978 37.4521 55.4652 37.616 55.4652 37.8024C55.4652 37.9887 55.3978 38.1461 55.263 38.2747C55.1346 38.4032 54.9773 38.4674 54.7912 38.4674Z" fill="#E4E7EC"/>
<path d="M56.7727 36.2505L56.869 34.9011C57.1643 34.9011 57.3761 34.8722 57.5045 34.8143C57.6329 34.7501 57.7099 34.6344 57.7356 34.4673C57.7612 34.2938 57.7677 34.0432 57.7548 33.7155L57.5815 29.1467H58.9392L59.1317 33.8119C59.1446 34.1846 59.1285 34.5219 59.0836 34.824C59.0451 35.1196 58.9456 35.3734 58.7851 35.5854C58.631 35.7975 58.3903 35.9613 58.0629 36.077C57.742 36.1927 57.3119 36.2505 56.7727 36.2505Z" fill="#E4E7EC"/>
<path d="M60.4015 36.2023L60.1993 29.1467H61.5474L61.7496 36.2023H60.4015Z" fill="#E4E7EC"/>
<path d="M64.9029 35.9324C64.9029 35.7846 64.9157 35.6111 64.9414 35.4119C64.967 35.2127 65.0152 34.9878 65.0858 34.7372C65.1564 34.4802 65.2623 34.1942 65.4036 33.8794L66.5879 34.2938C66.5173 34.493 66.4563 34.6762 66.405 34.8432C66.3536 35.0039 66.3151 35.1549 66.2894 35.2963C66.2637 35.4312 66.2509 35.5662 66.2509 35.7011C66.2509 35.9903 66.3215 36.2409 66.4627 36.4529C66.6104 36.6714 66.8094 36.8385 67.0597 36.9541C67.3165 37.0762 67.6118 37.1373 67.9456 37.1373C68.4912 37.1373 68.9084 37.0473 69.1973 36.8674C69.4926 36.6939 69.6916 36.4176 69.7943 36.0385C69.9034 35.6529 69.9451 35.1549 69.9195 34.5444L69.7269 29.1467H71.0846L71.229 33.7059C71.2418 34.0272 71.2868 34.2746 71.3638 34.4481C71.4408 34.6216 71.5596 34.7404 71.7201 34.8047C71.887 34.8689 72.102 34.9011 72.3652 34.9011C72.6091 34.9011 72.7824 34.9653 72.8851 35.0939C72.9878 35.2159 73.0392 35.3702 73.0392 35.5565C73.0392 35.7557 72.9718 35.9228 72.837 36.0577C72.7022 36.1862 72.5128 36.2505 72.2689 36.2505C72.1277 36.2505 71.9768 36.2312 71.8163 36.1927C71.6559 36.1541 71.5018 36.0931 71.3542 36.0095C71.2065 35.926 71.0781 35.8168 70.969 35.6818C70.8599 35.5404 70.7861 35.367 70.7475 35.1613L71.2675 34.9011C71.2675 35.5501 71.1905 36.0995 71.0364 36.5493C70.8888 36.9991 70.6705 37.3622 70.3816 37.6385C70.0992 37.9148 69.7494 38.114 69.3321 38.2361C68.9213 38.3646 68.4463 38.4289 67.907 38.4289C67.4962 38.4289 67.1079 38.3775 66.742 38.2747C66.3825 38.1718 66.0647 38.0176 65.7887 37.812C65.5127 37.6064 65.2944 37.3461 65.1339 37.0312C64.9799 36.7228 64.9029 36.3565 64.9029 35.9324Z" fill="#E4E7EC"/>
<path d="M72.269 36.2505L72.3653 34.9107C72.6157 34.9171 72.8468 34.9139 73.0586 34.9011C73.2704 34.8882 73.4598 34.8689 73.6267 34.8432C73.8 34.8175 73.9509 34.7886 74.0793 34.7565C74.2141 34.7244 74.3264 34.6954 74.4163 34.6697C74.6345 34.5991 74.8207 34.5155 74.9747 34.4191C75.1288 34.3163 75.2476 34.2007 75.331 34.0721C75.4145 33.9436 75.4562 33.8055 75.4562 33.6577C75.4562 33.542 75.4305 33.4263 75.3791 33.3107C75.3342 33.1886 75.2668 33.089 75.1769 33.0119C75.0871 32.9348 74.9812 32.8962 74.8592 32.8962C74.7436 32.8962 74.6377 32.9315 74.5414 33.0022C74.4452 33.0729 74.3681 33.1693 74.3103 33.2914C74.2526 33.4071 74.2237 33.542 74.2237 33.6962C74.2237 33.8312 74.2558 33.9597 74.32 34.0818C74.3842 34.1974 74.474 34.3099 74.5896 34.4191C74.7051 34.5284 74.8431 34.6312 75.0036 34.7276L73.723 35.2192C73.5818 35.0842 73.447 34.9396 73.3186 34.7854C73.1966 34.6312 73.0939 34.4577 73.0105 34.2649C72.9334 34.0657 72.8949 33.844 72.8949 33.5998C72.8949 33.3042 72.9527 33.0344 73.0682 32.7902C73.1838 32.546 73.3378 32.3372 73.5304 32.1637C73.723 31.9837 73.938 31.8456 74.1755 31.7492C74.4131 31.6528 74.6506 31.6046 74.8881 31.6046C75.2732 31.6046 75.607 31.6946 75.8895 31.8745C76.1719 32.0544 76.3902 32.289 76.5442 32.5781C76.7047 32.8673 76.785 33.1822 76.785 33.5227C76.785 33.8376 76.7272 34.1203 76.6116 34.3709C76.4961 34.6151 76.3388 34.8336 76.1398 35.0264C75.9472 35.2127 75.7322 35.3766 75.4947 35.518C75.2636 35.6593 75.0293 35.7782 74.7918 35.8746C74.6762 35.926 74.5318 35.9742 74.3585 36.0192C74.1852 36.0642 73.9894 36.1059 73.7711 36.1445C73.5529 36.1766 73.3186 36.2023 73.0682 36.2216C72.8179 36.2409 72.5515 36.2505 72.269 36.2505ZM77.3531 36.2505C76.9807 36.2505 76.6148 36.2312 76.2554 36.1927C75.8959 36.1541 75.5621 36.0963 75.254 36.0192C74.9523 35.9421 74.6891 35.8489 74.4644 35.7397L75.1288 34.6987C75.3214 34.7501 75.546 34.7918 75.8028 34.824C76.066 34.8497 76.3388 34.8689 76.6213 34.8818C76.9101 34.8946 77.1862 34.9011 77.4493 34.9011C77.6933 34.9011 77.8666 34.9653 77.9693 35.0939C78.0784 35.2159 78.133 35.3702 78.133 35.5565C78.133 35.7557 78.0656 35.9228 77.9308 36.0577C77.796 36.1862 77.6034 36.2505 77.3531 36.2505ZM75.7354 30.7275C75.5493 30.7275 75.3888 30.6632 75.254 30.5347C75.1256 30.3998 75.0614 30.2423 75.0614 30.0624C75.0614 29.876 75.1256 29.7154 75.254 29.5805C75.3888 29.4455 75.5493 29.378 75.7354 29.378C75.9151 29.378 76.0692 29.4455 76.1976 29.5805C76.326 29.7154 76.3902 29.876 76.3902 30.0624C76.3902 30.2423 76.326 30.3998 76.1976 30.5347C76.0692 30.6632 75.9151 30.7275 75.7354 30.7275ZM74.0696 30.7178C73.8835 30.7178 73.723 30.6536 73.5882 30.5251C73.4598 30.3901 73.3956 30.2327 73.3956 30.0528C73.3956 29.8664 73.4598 29.7058 73.5882 29.5708C73.723 29.4359 73.8835 29.3684 74.0696 29.3684C74.2494 29.3684 74.4034 29.4359 74.5318 29.5708C74.6602 29.7058 74.7244 29.8664 74.7244 30.0528C74.7244 30.2327 74.6602 30.3901 74.5318 30.5251C74.4034 30.6536 74.2494 30.7178 74.0696 30.7178Z" fill="#E4E7EC"/>
<path d="M77.3655 36.2505L77.4618 34.9011C77.7058 34.9011 77.8983 34.8786 78.0396 34.8336C78.1872 34.7886 78.3027 34.6987 78.3862 34.5637C78.4761 34.4223 78.5499 34.2167 78.6077 33.9468C78.6718 33.6769 78.736 33.3171 78.8002 32.8673L80.0616 33.0793C80.0488 33.1757 80.0295 33.2882 80.0038 33.4167C79.9846 33.5452 79.9653 33.6769 79.9461 33.8119C79.9332 33.9404 79.9268 34.0625 79.9268 34.1782C79.9268 34.3324 79.9589 34.4641 80.0231 34.5734C80.0937 34.6762 80.2157 34.7565 80.389 34.8143C80.5687 34.8722 80.8255 34.9011 81.1593 34.9011C81.4032 34.9011 81.5765 34.9653 81.6792 35.0939C81.782 35.2159 81.8333 35.3702 81.8333 35.5565C81.8333 35.7557 81.7659 35.9228 81.6311 36.0577C81.5027 36.1862 81.3134 36.2505 81.063 36.2505C80.6201 36.2505 80.2606 36.2087 79.9846 36.1252C79.7085 36.0417 79.5031 35.9003 79.3683 35.7011C79.2335 35.5019 79.1469 35.2288 79.1083 34.8818H79.5705C79.455 35.1902 79.3202 35.4376 79.1661 35.624C79.0121 35.8039 78.8387 35.9389 78.6462 36.0288C78.4536 36.1188 78.2482 36.1766 78.0299 36.2023C77.8181 36.2344 77.5966 36.2505 77.3655 36.2505ZM79.3298 31.8841C79.1308 31.8841 78.9607 31.8167 78.8195 31.6817C78.6847 31.5468 78.6173 31.3797 78.6173 31.1805C78.6173 30.9813 78.6847 30.811 78.8195 30.6696C78.9607 30.5283 79.1308 30.4576 79.3298 30.4576C79.5224 30.4576 79.6861 30.5283 79.8209 30.6696C79.9621 30.811 80.0327 30.9813 80.0327 31.1805C80.0327 31.3797 79.9621 31.5468 79.8209 31.6817C79.6861 31.8167 79.5224 31.8841 79.3298 31.8841Z" fill="#E4E7EC"/>
<path d="M81.061 36.2505L81.1573 34.9011C81.4397 34.9011 81.6612 34.8818 81.8216 34.8432C81.9885 34.8047 82.1073 34.734 82.1779 34.6312C82.2485 34.5219 82.2838 34.3677 82.2838 34.1685C82.2838 33.9886 82.2582 33.7733 82.2068 33.5227C82.1619 33.2721 82.1009 33.0119 82.0238 32.742C81.9468 32.4721 81.8698 32.2247 81.7928 31.9998L83.1215 31.6335C83.1986 31.852 83.2756 32.1058 83.3526 32.395C83.4297 32.6842 83.4939 32.983 83.5452 33.2914C83.603 33.5934 83.6319 33.8858 83.6319 34.1685C83.6319 34.5219 83.5869 34.8208 83.4971 35.0649C83.4072 35.3027 83.282 35.5019 83.1215 35.6625C82.9675 35.8168 82.7813 35.9389 82.5631 36.0288C82.3512 36.1124 82.1169 36.1702 81.8602 36.2023C81.6034 36.2344 81.337 36.2505 81.061 36.2505ZM82.4475 30.8335C82.2485 30.8335 82.0784 30.766 81.9372 30.6311C81.8024 30.4961 81.735 30.3291 81.735 30.1299C81.735 29.9307 81.8024 29.7604 81.9372 29.619C82.0784 29.4776 82.2485 29.407 82.4475 29.407C82.6401 29.407 82.8038 29.4776 82.9386 29.619C83.0798 29.7604 83.1504 29.9307 83.1504 30.1299C83.1504 30.3291 83.0798 30.4961 82.9386 30.6311C82.8038 30.766 82.6401 30.8335 82.4475 30.8335Z" fill="#E4E7EC"/>
</svg>
